<?xml version="1.0" encoding="UTF-8"?>
<svg id="Layer_2" data-name="Layer 2" xmlns="http://www.w3.org/2000/svg" viewBox="0 0 323 72.56">
  <defs>
    <style>
      .cls-1 {
        fill: #231f20;
      }
    </style>
  </defs>
  <g id="Layer_1-2" data-name="Layer 1">
    <g>
      <g>
        <path class="cls-1" d="M17.22,63.99c-2.26-.65-3.57-3-2.92-5.26L29.38,5.95s.01-.02.01-.04L3.62,9.82C1.3,10.17-.3,12.35.05,14.67l8.23,54.27c.35,2.32,2.52,3.92,4.85,3.57l22.15-3.36-18.06-5.16Z"/>
        <rect class="cls-1" x="27.78" y="4.05" width="43.12" height="62.49" rx="2.83" ry="2.83" transform="translate(11.6 -12.2) rotate(15.95)"/>
      </g>
      <g>
        <path class="cls-1" d="M140.77,8.72h-47.12c-1.1,0-2,.9-2,2v10.56c0,1.1.9,2,2,2h14.71v41.13c0,1.1.9,2,2,2h13.7c1.1,0,2-.9,2-2V23.28h14.71c1.1,0,2-.9,2-2v-10.56c0-1.1-.9-2-2-2Z"/>
        <path class="cls-1" d="M198.33,53.22c-.11-.52-.43-.98-.88-1.27l-9.72-6.15c-.32-.2-.69-.31-1.07-.31-.16,0-.32.02-.48.06-.53.13-.98.47-1.25.95-2.47,4.32-5.65,6.33-10.01,6.33-10.79,0-11.63-11.69-11.63-15.27,0-14.17,8.8-15.27,11.49-15.27,4.37,0,7.43,2.03,9.92,6.58.27.49.73.84,1.27.98.16.04.32.06.48.06.39,0,.77-.11,1.1-.33l9.79-6.43c.91-.6,1.17-1.82.59-2.74-5.23-8.27-13.21-12.47-23.71-12.47-8.82,0-16.19,2.99-21.34,8.64-4.86,5.34-7.43,12.67-7.43,21.18,0,17.86,11.32,29.4,28.84,29.4,10.52,0,18.29-4.07,23.76-12.44.29-.45.39-1,.28-1.52Z"/>
        <path class="cls-1" d="M254.85,32.28h-23.63c-1.1,0-2,.9-2,2v10.21c0,1.1.9,2,2,2h8.52c-.7,4.75-4.73,6.49-8.52,6.49-4.24,0-11.35-1.97-11.35-15.2,0-14.36,9.39-15.48,12.26-15.48,4.55,0,7.75,1.87,10.72,6.25.3.44.77.75,1.29.85.12.02.24.03.36.03.41,0,.81-.12,1.15-.36l9.58-6.71c.44-.31.73-.78.82-1.3s-.04-1.07-.35-1.5c-5.45-7.59-13.75-11.6-23.99-11.6-18.03,0-29.68,11.79-29.68,30.03,0,8.19,2.27,15.27,6.57,20.48,4.71,5.7,11.56,8.71,19.82,8.71,4.99,0,9.11-1.19,12.49-3.63l.05.97c.06,1.06.94,1.89,2,1.89h11.88c1.1,0,2-.9,2-2v-30.13c0-1.1-.9-2-2-2Z"/>
        <g>
          <path class="cls-1" d="M288.82,20.53l-7.14-10.91c-.37-.56-1-.9-1.67-.9h-14.96c-.73,0-1.41.4-1.76,1.04s-.32,1.43.08,2.04l14.49,22.4c.37.57.99.91,1.67.91,0,0,0,0,.01,0,.67,0,1.3-.34,1.67-.9l7.61-11.49c.44-.67.44-1.53,0-2.2Z"/>
          <path class="cls-1" d="M287.94,51.27l-7.49-11.23c-.37-.56-1-.89-1.66-.89h0c-.67,0-1.3.34-1.66.9l-15.31,23.25c-.4.61-.44,1.4-.09,2.05s1.03,1.05,1.76,1.05h14.96c.68,0,1.31-.34,1.68-.91l7.84-12.03c.44-.67.43-1.54-.01-2.2Z"/>
          <path class="cls-1" d="M322.67,63.31l-17.04-25.77,17.01-25.72c.41-.61.44-1.4.09-2.05-.35-.65-1.03-1.05-1.76-1.05h-15.45c-.67,0-1.3.34-1.67.9l-17.76,26.84c-.41.61-.44,1.4-.09,2.05.08.15.19.3.3.42l17.58,26.58c.37.56,1,.9,1.67.9h15.45c.74,0,1.41-.4,1.76-1.05.35-.65.31-1.44-.09-2.05Z"/>
        </g>
      </g>
    </g>
  </g>
</svg>